<svg id="圖層_2" data-name="圖層 2" xmlns="http://www.w3.org/2000/svg" xmlns:xlink="http://www.w3.org/1999/xlink" viewBox="0 0 547.34 236.58"><defs><style>.cls-1{fill:url(#linear-gradient);}.cls-2{fill:url(#linear-gradient-2);}.cls-3{fill:url(#linear-gradient-3);}.cls-4{fill:url(#linear-gradient-4);}.cls-5{fill:url(#linear-gradient-5);}.cls-6{fill:url(#linear-gradient-6);}.cls-7{fill:#54040a;}.cls-8{fill:url(#linear-gradient-7);}.cls-9{fill:url(#linear-gradient-8);}.cls-10{fill:url(#linear-gradient-9);}.cls-11{fill:url(#linear-gradient-10);}.cls-12{fill:url(#linear-gradient-11);}.cls-13{fill:url(#linear-gradient-12);}.cls-14{fill:url(#linear-gradient-13);}.cls-15{fill:url(#linear-gradient-14);}.cls-16{fill:url(#linear-gradient-15);}.cls-17{fill:url(#linear-gradient-16);}.cls-18{fill:url(#linear-gradient-17);}.cls-19{fill:url(#linear-gradient-18);}.cls-20{fill:url(#linear-gradient-19);}.cls-21{fill:url(#linear-gradient-20);}.cls-22{fill:url(#linear-gradient-21);}.cls-23{fill:url(#linear-gradient-22);}.cls-24{fill:url(#linear-gradient-23);}.cls-25{fill:url(#linear-gradient-24);}.cls-26{fill:url(#linear-gradient-25);}.cls-27{fill:url(#linear-gradient-26);}.cls-28{fill:url(#linear-gradient-27);}.cls-29{fill:url(#linear-gradient-28);}.cls-30{fill:url(#linear-gradient-29);}</style><linearGradient id="linear-gradient" x1="427.68" y1="479.78" x2="570.12" y2="479.78" gradientUnits="userSpaceOnUse"><stop offset="0.33" stop-color="#680700"/><stop offset="0.43" stop-color="#730904"/><stop offset="0.61" stop-color="#8f0f0e"/><stop offset="0.89" stop-color="#c20605"/></linearGradient><linearGradient id="linear-gradient-2" x1="22.78" y1="479.78" x2="165.22" y2="479.78" gradientUnits="userSpaceOnUse"><stop offset="0.11" stop-color="#c20605"/><stop offset="0.39" stop-color="#8f0f0e"/><stop offset="0.57" stop-color="#730904"/><stop offset="0.68" stop-color="#680700"/></linearGradient><linearGradient id="linear-gradient-3" x1="464.87" y1="440.9" x2="563.48" y2="440.9" gradientUnits="userSpaceOnUse"><stop offset="0" stop-color="#c69433"/><stop offset="0.09" stop-color="#d8b45b"/><stop offset="0.19" stop-color="#ead485"/><stop offset="0.27" stop-color="#f6e99e"/><stop offset="0.32" stop-color="#faf0a8"/><stop offset="0.36" stop-color="#f5e79a"/><stop offset="0.69" stop-color="#d7ab42"/><stop offset="0.71" stop-color="#ddb549"/><stop offset="0.77" stop-color="#e6c353"/><stop offset="0.81" stop-color="#e9c857"/><stop offset="0.82" stop-color="#e8c656"/><stop offset="0.94" stop-color="#cea03a"/><stop offset="1" stop-color="#c4922f"/></linearGradient><linearGradient id="linear-gradient-4" x1="456.03" y1="512.81" x2="551.1" y2="512.81" xlink:href="#linear-gradient-3"/><linearGradient id="linear-gradient-5" x1="-301.03" y1="440.9" x2="-202.41" y2="440.9" gradientTransform="matrix(-1, 0, 0, 1, -172.98, 0)" xlink:href="#linear-gradient-3"/><linearGradient id="linear-gradient-6" x1="-309.86" y1="512.81" x2="-214.79" y2="512.81" gradientTransform="matrix(-1, 0, 0, 1, -172.98, 0)" xlink:href="#linear-gradient-3"/><linearGradient id="linear-gradient-7" x1="83.62" y1="485.13" x2="509.4" y2="485.13" gradientUnits="userSpaceOnUse"><stop offset="0" stop-color="#8e0e0f"/><stop offset="0.13" stop-color="#c11315"/><stop offset="0.5" stop-color="#c20605"/><stop offset="0.86" stop-color="#8f0f0e"/><stop offset="1" stop-color="#680700"/></linearGradient><linearGradient id="linear-gradient-8" x1="83.9" y1="446.09" x2="508.43" y2="446.09" xlink:href="#linear-gradient-3"/><linearGradient id="linear-gradient-9" x1="92.94" y1="523.92" x2="500.07" y2="523.92" xlink:href="#linear-gradient-3"/><linearGradient id="linear-gradient-10" x1="56.32" y1="355.76" x2="305.69" y2="355.76" gradientUnits="userSpaceOnUse"><stop offset="0" stop-color="#8e0e0f"/><stop offset="0.13" stop-color="#ca3638"/><stop offset="0.5" stop-color="#c51312"/><stop offset="0.86" stop-color="#c11315"/><stop offset="1" stop-color="#a2393a"/></linearGradient><linearGradient id="linear-gradient-11" x1="295.01" y1="55.41" x2="519.81" y2="55.41" xlink:href="#linear-gradient-10"/><linearGradient id="linear-gradient-12" x1="55.98" y1="59.95" x2="124.74" y2="59.95" gradientUnits="userSpaceOnUse"><stop offset="0" stop-color="#8e0e0f"/><stop offset="0.86" stop-color="#8f0f0e"/><stop offset="1" stop-color="#680700"/></linearGradient><linearGradient id="linear-gradient-13" x1="150.52" y1="356.43" x2="223.69" y2="356.43" xlink:href="#linear-gradient-12"/><linearGradient id="linear-gradient-14" x1="232.38" y1="351.81" x2="298.24" y2="351.81" xlink:href="#linear-gradient-12"/><linearGradient id="linear-gradient-15" x1="310.58" y1="50" x2="407.67" y2="50" xlink:href="#linear-gradient-12"/><linearGradient id="linear-gradient-16" x1="431.05" y1="358.48" x2="456.15" y2="358.48" gradientTransform="translate(750.89 -122) rotate(83.66)" xlink:href="#linear-gradient-12"/><linearGradient id="linear-gradient-17" x1="437.29" y1="63.11" x2="510.88" y2="63.11" xlink:href="#linear-gradient-12"/><linearGradient id="linear-gradient-18" x1="74.08" y1="355.08" x2="141.47" y2="360.98" gradientUnits="userSpaceOnUse"><stop offset="0.01" stop-color="#faf0a8"/><stop offset="0.27" stop-color="#d5b068"/><stop offset="0.35" stop-color="#e6cd85"/><stop offset="0.44" stop-color="#f5e79f"/><stop offset="0.49" stop-color="#faf0a8"/><stop offset="0.69" stop-color="#ead6a1"/><stop offset="0.81" stop-color="#e3cc9e"/><stop offset="0.97" stop-color="#faf0a8"/></linearGradient><linearGradient id="linear-gradient-19" x1="90.23" y1="375.62" x2="143.89" y2="321.97" gradientUnits="userSpaceOnUse"><stop offset="0" stop-color="#faf0a8"/><stop offset="0.14" stop-color="#e9d383"/><stop offset="0.33" stop-color="#d5b056"/><stop offset="0.48" stop-color="#c99a39"/><stop offset="0.57" stop-color="#c4922f"/><stop offset="0.9" stop-color="#faf0a8"/></linearGradient><linearGradient id="linear-gradient-20" x1="147.92" y1="350.53" x2="220.88" y2="356.91" xlink:href="#linear-gradient-18"/><linearGradient id="linear-gradient-21" x1="158.53" y1="379.62" x2="210.31" y2="327.85" xlink:href="#linear-gradient-19"/><linearGradient id="linear-gradient-22" x1="227.14" y1="344.72" x2="296.11" y2="350.76" xlink:href="#linear-gradient-18"/><linearGradient id="linear-gradient-23" x1="233.53" y1="371.08" x2="292.54" y2="312.07" xlink:href="#linear-gradient-19"/><linearGradient id="linear-gradient-24" x1="327.83" y1="345.8" x2="424.66" y2="354.28" xlink:href="#linear-gradient-18"/><linearGradient id="linear-gradient-25" x1="340.35" y1="376.97" x2="413" y2="304.31" xlink:href="#linear-gradient-19"/><linearGradient id="linear-gradient-26" x1="431.31" y1="354.93" x2="450.48" y2="356.61" xlink:href="#linear-gradient-18"/><linearGradient id="linear-gradient-27" x1="418.11" y1="378.55" x2="463.68" y2="332.98" xlink:href="#linear-gradient-19"/><linearGradient id="linear-gradient-28" x1="460.14" y1="359.99" x2="528.18" y2="365.94" xlink:href="#linear-gradient-18"/><linearGradient id="linear-gradient-29" x1="461.37" y1="395.75" x2="526.94" y2="330.18" xlink:href="#linear-gradient-19"/></defs><title>win</title><path class="cls-1" d="M556.27,539.14a434.44,434.44,0,0,1-128.59-44.69q20.63-37,41.27-74A339.7,339.7,0,0,0,570.12,445.7a341.27,341.27,0,0,1-41,41.43A502.81,502.81,0,0,0,556.27,539.14Z" transform="translate(-22.78 -302.56)"/><path class="cls-2" d="M36.63,539.14a434.44,434.44,0,0,0,128.59-44.69l-41.26-74A339.84,339.84,0,0,1,22.78,445.7a341.27,341.27,0,0,0,41,41.43A502.81,502.81,0,0,1,36.63,539.14Z" transform="translate(-22.78 -302.56)"/><path class="cls-3" d="M561.58,455.55c-38-3.29-83-18.46-96.71-27.38l1.24-1.92c13.71,8.94,59.33,24.22,97.37,27.17A10.71,10.71,0,0,1,561.58,455.55Z" transform="translate(-22.78 -302.56)"/><path class="cls-4" d="M551.1,530.36c-37.81-5.57-81.93-23.5-95.07-33.27l1.36-1.83c12.77,9.49,55.29,26.8,92.36,32.59C550,528.29,550.58,529.43,551.1,530.36Z" transform="translate(-22.78 -302.56)"/><path class="cls-5" d="M31.33,455.55c38-3.29,83-18.46,96.71-27.38l-1.25-1.92c-13.7,8.94-59.32,24.22-97.36,27.17A10.71,10.71,0,0,0,31.33,455.55Z" transform="translate(-22.78 -302.56)"/><path class="cls-6" d="M41.81,530.36c37.81-5.57,81.92-23.5,95.07-33.27l-1.36-1.83c-12.77,9.49-55.29,26.8-92.36,32.59C42.9,528.29,42.33,529.43,41.81,530.36Z" transform="translate(-22.78 -302.56)"/><path class="cls-7" d="M471.83,484.89c13.71-8.57,37.69-40,37.69-40s-40.54-28-41.69-24.55-21.13,46.83-19.41,47.4S471.83,484.89,471.83,484.89Z" transform="translate(-22.78 -302.56)"/><path class="cls-7" d="M121.07,484.89c-13.71-8.57-37.69-40-37.69-40s40.54-28,41.69-24.55,21.13,46.83,19.41,47.4S121.07,484.89,121.07,484.89Z" transform="translate(-22.78 -302.56)"/><path class="cls-8" d="M499.24,536.86a1882.25,1882.25,0,0,0-405.47,0q-5.07-46-10.15-92a1975.42,1975.42,0,0,1,425.78,0Z" transform="translate(-22.78 -302.56)"/><path class="cls-9" d="M84.11,452.9l-.21-2.27c86.07-7.82,149.23-11.22,211.19-11.36,64.56-.14,130.35,3.37,213.34,11.36l-.22,2.27C350.41,437.7,251.32,437.7,84.11,452.9Z" transform="translate(-22.78 -302.56)"/><path class="cls-10" d="M499.86,530.35c-149.78-14.08-248.61-14.08-406.72,0l-.2-2.27c158.27-14.08,257.2-14.08,407.13,0Z" transform="translate(-22.78 -302.56)"/><path class="cls-11" d="M304.41,313.47l-.31-10.15-10.15.31-17.84.55L266,304.5l.31,10.15,1.24,40.09a4.54,4.54,0,0,1-.67,2.95,5.27,5.27,0,0,1-3.42,1h-.68l-.42,0-.4,0-.34,0-.31-.06h0l-.23-.05-.22-.07-.08,0-.12,0-.14-.06-.13-.06h0l0,0-.06,0-.1-.05L260,358l-.07,0-.06-.05-.05-.05-.05-.05,0-.06-.05-.07-.05-.07-.06-.1-.06-.11-.06-.14-.07-.15-.06-.18a1.72,1.72,0,0,0-.07-.21v0l-.05-.22a2.68,2.68,0,0,0-.07-.27,1.11,1.11,0,0,0,0-.17l0-.14c0-.12,0-.24-.05-.35a5.4,5.4,0,0,1,0-.56l-1.24-40.09-.31-10.15-10.15.31-17.94.56-10.15.31.31,10.15.21,6.93h0c-.13-.16-.27-.31-.41-.46-.41-.46-.82-.87-1.13-1.18l-.36-.37a40.37,40.37,0,0,0-3.24-2.88l-.4-.31h0c-.37-.29-.81-.63-1.29-1l-.49-.34-.09-.06c-.36-.25-.75-.53-1.19-.82l-.55-.34-.12-.08c-.39-.24-.77-.48-1.17-.71l-.59-.34-.13-.07-1.16-.63-.69-.34-.09,0-1.16-.56-.81-.36-1.18-.5-.84-.33-1.2-.44-.87-.29-1.21-.38-.89-.26-1.24-.32-.1,0-.79-.2-1.28-.27-.16,0-.74-.14-1.32-.22-.17,0-.71-.11c-.45-.06-.91-.11-1.37-.15h-.19l-.67-.07c-.55-.05-1.06-.08-1.58-.11h-.08l-.59,0c-.77,0-1.53-.05-2.27-.05H185c-.55,0-1.07,0-1.6,0h-.6c-.79,0-1.6.09-2.39.16a50.14,50.14,0,0,0-20.86,6.52l2.09-4.64-18.27,2.59-19.8,2.8-5.79.82-2.2,5.41-4.45,11-7.45-9.33L100.07,319l-5.74.81-19.71,2.79-18.3,2.59,12,14.06,29.5,34.54,3.46,24.4,1.42,10.05,10.06-1.42,17.47-2.48,10.05-1.42-1.42-10.05-3.46-24.41,3-6.58c0,.21.07.42.11.64l.15.72,0,.17,0,.09c.09.43.17.85.27,1.27.06.26.12.51.19.76l0,.18v0l.33,1.22.24.81,0,.14.39,1.21.31.88,0,.06c.14.39.29.78.44,1.16l.37.93c.16.38.33.75.49,1.13l.42.9c.18.37.36.73.55,1.09l.45.88.6,1.06.49.84c.22.35.43.69.66,1l0,.08.48.72c.23.35.47.68.71,1l.09.11c.15.22.3.43.46.64s.52.66.78,1l.11.14.46.57.83,1,0,.05.09.1.46.51c.39.42.77.8,1.05,1.08l0,0,.42.42c.52.51,1.05,1,1.57,1.47l0,0,0,0,.06.06c.49.42,1,.86,1.54,1.29l.48.37.07.05c.31.24.71.55,1.16.87.18.14.37.27.56.4l.12.08,0,0,1,.71.62.39.14.08c.36.23.71.45,1.07.66l.69.39.12.06c.35.2.71.4,1.08.59l.78.39.06,0,1.1.53.88.39,1.11.47.9.35,1.14.41.92.32,1.16.36.94.27,1.19.31.08,0,.87.21,1.22.25.15,0,.79.16,1.23.2H176l.17,0,.75.11c.42.06.84.1,1.27.15h.26l.7.08c.57.05,1.09.08,1.55.1h.1l.6,0c.77,0,1.53.05,2.27.05h.19c.48,0,.93,0,1.33,0h.22l.64,0c.79,0,1.6-.09,2.39-.16,12.77-1.13,24.09-6.67,31.88-15.59a42.71,42.71,0,0,0,5.38-7.74l0,.05.05.09.53.91.41.66,0,.07.58.89.47.66,0,0c.21.28.42.57.64.85s.35.45.53.67.45.56.68.83l.57.64.74.79.61.61.77.74.66.59.82.7.69.55.86.65.73.52q.43.32.9.6l.76.49.93.55.8.44c.32.18.64.35,1,.51l.83.41,1,.45.85.37,1,.41.88.33,1.06.35.07,0,.84.27,1.09.31.1,0,.83.22,1.08.25h0l.13,0,.83.18,1.05.2h.09l.16,0,.82.14c.34.06.69.11,1,.15l.13,0,.18,0,.82.1,1,.11h.16l.2,0,.82.08,1.05.06h.18l.22,0,.82,0,1.06,0h1.39c.69,0,1.4,0,2.11,0,13.05-.4,23.77-4.53,31-11.93,7-7.17,10.5-17,10.14-28.54ZM185.77,344.15l.23,0,.19,0,.22,0,.18,0,.21.05.17,0,.2.06.17.05.19.07.16.06.17.08,0,0,.12.05.16.08.09,0,.07,0,.12.07,0,0,.13.07h0l.08.06.07,0,.15.1.07.05.08.05.15.11.15.12.17.14.13.11.15.15,0,0,.12.11.12.14.07.07.08.09h0l.11.13.05.06.09.11,0,0,.08.1,0,0,.12.15,0,.08.05.07a2.14,2.14,0,0,1,.13.19l.1.15.13.21.1.18a2,2,0,0,1,.11.2,1.74,1.74,0,0,1,.1.19c0,.07.07.15.11.22l.09.2a2.29,2.29,0,0,1,.1.23l.09.21a2.6,2.6,0,0,0,.1.25c0,.07.05.14.07.21l.09.27,0,.06,0,.16c0,.09.06.19.08.28l0,.12,0,.12.06.25V351l0,.16,0,.09c0,.07,0,.16,0,.24l0,.08,0,.2v.05c0,.11,0,.22,0,.33l.05.28c0,.17,0,.36,0,.54.42,4.65-1.34,9.8-7.52,10.35-.15,0-.31,0-.48,0h-1.27l-.26,0-.14,0h-.06l-.24,0-.19,0-.22,0-.19,0-.21,0-.17-.05-.2-.06-.17-.06-.19-.07-.17-.06-.18-.08h0l-.13-.06-.16-.08-.09,0-.08,0-.1-.06-.06,0-.11-.07,0,0-.07,0-.08-.06-.15-.09-.06,0-.1-.07-.15-.11-.09-.07-.06-.05-.17-.14-.16-.13-.16-.16-.08-.08-.07-.06-.12-.14-.09-.08-.05-.06,0,0-.11-.13-.06-.07-.07-.08-.05-.06-.07-.1,0,0-.1-.13-.07-.1,0-.06-.12-.18-.11-.16-.12-.2-.11-.18-.11-.2c0-.07-.07-.13-.1-.2l-.11-.21-.09-.2c0-.08-.07-.16-.1-.23l-.09-.21-.09-.25a1.8,1.8,0,0,1-.08-.21l-.09-.26,0-.06,0-.17a2,2,0,0,1-.07-.26l0-.13,0-.12c0-.07,0-.15-.05-.24v-.05l0-.16,0-.09c0-.06,0-.15-.05-.24v-.07l0-.2v-.05c0-.1,0-.21-.05-.32h0v0l0-.25h0l-.06-.53c-.2-2.25-.24-9.66,7.63-10.36l.48,0h1.25l.25,0,.13,0Z" transform="translate(-22.78 -302.56)"/><polygon class="cls-12" points="509.78 21.61 492.25 18.81 482.23 17.21 480.63 27.23 479.57 33.86 472.33 19.82 469.98 15.25 464.9 14.44 446.97 11.58 436.95 9.97 436.84 10.65 431.78 10.09 418.48 8.61 419 7.13 405.55 6.36 385.68 5.21 377.56 4.75 375.33 12.56 374.08 16.93 373.14 12.14 371.63 4.41 363.76 3.95 350.24 3.18 342.38 2.72 339.98 10.23 338.44 15.07 337.66 10.37 336.32 2.38 328.22 1.91 308.46 0.77 295.01 0 297.97 13.14 313.6 82.58 315.28 90.04 322.93 90.48 341.57 91.56 349.55 92.01 351.87 84.36 352.47 82.37 352.84 84.42 354.27 92.29 362.25 92.74 380.89 93.82 388.54 94.26 391.06 87.03 397.22 69.42 395.47 85.11 394.35 95.2 404.44 96.32 421.98 98.27 432.07 99.39 432.11 99.06 432.98 99.2 450.4 101.98 460.43 103.58 462.03 93.55 463.37 85.18 471.53 101.14 473.88 105.73 478.97 106.54 495.79 109.23 505.81 110.83 507.41 100.8 518.2 33.24 519.8 23.21 509.78 21.61"/><polygon class="cls-13" points="104.93 25.83 93.94 52.87 75.68 29.97 55.98 32.76 87.39 69.55 91.26 96.87 108.73 94.39 104.86 67.08 124.73 23.03 104.93 25.83"/><path class="cls-14" d="M223.32,351.34c0-.2-.07-.4-.1-.61-.06-.4-.12-.81-.19-1.21,0-.24-.1-.47-.14-.7s-.15-.72-.23-1.08l-.18-.73c-.09-.33-.17-.67-.27-1s-.14-.49-.22-.73-.19-.64-.3-1l-.25-.72c-.12-.31-.23-.62-.35-.92s-.19-.47-.28-.7-.25-.6-.39-.89-.2-.46-.31-.68-.28-.58-.43-.87l-.34-.65c-.15-.28-.31-.56-.47-.84l-.36-.62-.52-.83-.38-.58c-.18-.27-.38-.54-.57-.81s-.26-.37-.39-.54l-.63-.81-.39-.49-.72-.83c-.13-.14-.24-.28-.37-.41-.28-.32-.58-.62-.89-.93l-.25-.25a30.31,30.31,0,0,0-2.47-2.2l-.3-.23c-.33-.26-.66-.52-1-.77l-.44-.3c-.3-.22-.6-.43-.92-.63l-.51-.32c-.29-.19-.59-.37-.89-.55l-.56-.32-.9-.49-.6-.3-.9-.43-.63-.28-.91-.39-.66-.25-.93-.35-.67-.23-1-.29-.69-.2-1-.26-.7-.17-1-.21-.71-.14-1.05-.17-.69-.1-1.12-.13-.66-.07c-.42,0-.84-.06-1.27-.08l-.54,0c-.6,0-1.21,0-1.82,0h0l-1.47,0H186c-.64,0-1.29.08-1.95.13-20.84,1.85-35.18,17.75-33.34,38.49,0,.63.12,1.25.21,1.87,0,.2.06.4.09.61.06.4.13.81.2,1.21,0,.24.09.47.14.7s.15.72.23,1.08l.18.73c.09.34.17.67.27,1s.14.49.22.74l.3.94c.08.25.17.49.26.73s.22.61.34.91.19.48.29.72.25.58.38.87.21.47.32.7l.42.84.35.67c.15.28.31.55.46.82l.38.65.5.79.41.62c.17.26.36.51.54.77l.42.58.6.76c.14.18.28.36.43.53s.44.52.67.78.27.31.42.46.53.56.8.83c.11.12.22.24.34.35.39.39.8.76,1.21,1.13h0c.41.36.82.71,1.24,1.05l.42.32.89.67.53.37.84.57.58.36.82.5.63.35.83.46.66.32.85.41.68.31.86.36.71.27.88.33.72.24.91.28.74.22.93.24.75.18,1,.2.75.15,1,.16.74.11,1.08.12.7.08,1.24.08.56,0c.61,0,1.21,0,1.83,0h0l1.33,0,.59,0c.64,0,1.29-.07,1.94-.12,20.85-1.86,35.09-17.74,33.25-38.48C223.47,352.58,223.4,352,223.32,351.34Zm-35.43,24.88h-1.41l-.56,0-.43,0-.53-.05-.43-.05L184,376l-.43-.07-.5-.1-.41-.09-.49-.12-.41-.11-.47-.14-.4-.14-.45-.16-.4-.15-.44-.19-.38-.17-.43-.21-.37-.18-.41-.24-.36-.2-.4-.25-.34-.22-.41-.29-.31-.22-.44-.35-.25-.19-.65-.57-.25-.24-.38-.37-.27-.29c-.11-.12-.23-.23-.33-.35l-.27-.32-.31-.36-.26-.33-.28-.37c-.08-.12-.16-.24-.25-.35l-.26-.39c-.08-.12-.16-.24-.23-.36s-.17-.27-.25-.4l-.22-.38-.23-.41c-.07-.13-.14-.26-.2-.39s-.15-.29-.21-.43-.13-.27-.19-.4l-.2-.45c-.05-.13-.11-.26-.16-.4s-.12-.31-.18-.47-.11-.27-.15-.41l-.17-.48c0-.14-.09-.28-.13-.42s-.1-.33-.14-.5l-.12-.42c0-.17-.08-.35-.13-.53L169,361c0-.19-.08-.38-.11-.57s0-.26-.08-.39l-.09-.65c0-.11,0-.22-.05-.33,0-.33-.08-.66-.11-1-1-11.14,5.5-20.37,16.84-21.38l1-.06h1.4l.56,0,.42,0,.54.05.42.05.52.07.42.07.5.09.41.09.49.12.4.11.47.15.4.13.45.16.39.15.44.19.37.16.44.21.36.19.42.23.34.2.42.26.32.2.43.3.29.21.47.37.21.17.66.57.21.2.42.41.24.26.36.38.25.3c.11.12.21.25.32.38s.16.21.25.31l.29.39.24.34.27.4c.08.11.15.23.23.35l.25.41.21.37.24.42.19.38.22.44.18.39c.07.15.14.3.2.46s.11.26.16.4.13.31.19.47l.15.41c0,.16.11.32.16.49s.09.27.13.41l.15.51c0,.14.07.28.11.41s.09.36.13.54l.09.41.12.58c0,.13.05.26.07.39s.07.44.1.66,0,.22,0,.33c0,.33.08.66.11,1,1,11-5.51,20.37-16.75,21.36C188.57,376.18,188.23,376.21,187.89,376.22Z" transform="translate(-22.78 -302.56)"/><path class="cls-15" d="M297,316.49l-17.84.55,1.23,40.09c.25,8.1-4.49,14.1-13.92,14.39-.43,0-.84,0-1.25,0l-.81,0-.84-.08-.76-.09c-.27,0-.53-.1-.79-.15s-.48-.09-.71-.15-.49-.13-.73-.21a6.37,6.37,0,0,1-.66-.21l-.68-.26c-.2-.09-.41-.17-.61-.27s-.41-.21-.62-.33-.38-.2-.56-.31l-.56-.38c-.17-.12-.35-.24-.51-.37l-.5-.44a6.1,6.1,0,0,1-.46-.41c-.16-.16-.31-.32-.45-.49l-.41-.45-.4-.54c-.11-.17-.24-.33-.35-.5s-.23-.39-.34-.59-.21-.35-.3-.53-.19-.43-.29-.65-.17-.36-.24-.55-.16-.47-.24-.71-.13-.37-.19-.56-.13-.53-.19-.8-.09-.36-.12-.55-.1-.61-.14-.93a4,4,0,0,1-.07-.48c-.06-.48-.09-1-.11-1.47l-1.23-40.09-17.94.55,1.25,40.71c0,.52,0,1,.08,1.54,0,.17,0,.33,0,.49,0,.34.06.68.1,1,0,.19.05.39.07.58s.07.6.12.9.07.4.1.6l.15.85c0,.2.09.4.13.6s.12.54.19.81.1.4.16.6.13.52.21.78.12.39.19.59.15.5.24.75l.21.58c.09.24.18.48.28.72l.24.57c.1.23.2.47.31.7l.27.54c.11.23.22.46.34.68l.3.53c.12.22.24.44.37.65l.33.52c.13.21.27.42.41.62s.23.33.34.49l.45.61.37.47.48.58.41.45c.16.18.33.37.51.55l.43.43.54.52.46.41.58.49a6,6,0,0,0,.49.39l.61.47.51.36.65.44.54.34.68.4.57.32.71.37c.2.1.4.21.61.3l.74.34.63.27.78.31.66.24.81.27.7.23.83.23.73.2.87.2.76.17.91.17.78.13.94.14.81.1,1,.1.83.08,1,.06.86,0,1.07,0,.88,0h.12l1.79,0c21.84-.67,31.83-13,31.3-30Z" transform="translate(-22.78 -302.56)"/><polygon class="cls-16" points="374.94 63.04 365.89 16.8 352.37 16.02 338.07 60.92 330.35 14.76 310.58 13.62 326.22 83.05 344.86 84.13 357.66 41.91 365.54 85.31 384.18 86.39 407.67 19.2 387.8 18.06 374.94 63.04"/><rect class="cls-17" x="409.39" y="349.65" width="68.42" height="17.64" transform="translate(15.55 457.21) rotate(-83.66)"/><polygon class="cls-18" points="493.36 31.54 487.42 68.72 466.01 27.18 448.08 24.31 437.29 91.88 454.71 94.66 460.96 55.56 483.28 99.22 500.1 101.91 510.88 34.34 493.36 31.54"/><path class="cls-19" d="M111.33,396.72l-3.86-27.32L76.05,332.62l19.7-2.79L114,352.73l11-27,19.81-2.81-19.88,44.05,3.87,27.32Z" transform="translate(-22.78 -302.56)"/><path class="cls-20" d="M140.31,326.25l-17.84,39.56-.33.72.11.78L125.74,392l-12.11,1.71L110.15,369l-.11-.78-.52-.6-28.21-33,13.29-1.88,17.3,21.69,2.88,3.61,1.74-4.28,10.4-25.6,13.39-1.9m4.5-3.37L125,325.69l-11,27-18.26-22.9-19.7,2.79,31.42,36.78,3.86,27.32,17.47-2.47-3.87-27.32,19.88-44.05Z" transform="translate(-22.78 -302.56)"/><path class="cls-21" d="M148,357c-1.84-20.74,12.5-36.63,33.35-38.48s37.66,11.28,39.5,32-12.4,36.63-33.25,38.48S149.81,377.71,148,357Zm55-4.87C202,341,193.93,333,182.7,334s-17.84,10.23-16.85,21.37,9,19.07,20.35,18.07S203.92,363.12,202.94,352.09Z" transform="translate(-22.78 -302.56)"/><path class="cls-22" d="M185.19,321a33.68,33.68,0,0,1,22.5,8.12c6.05,5.38,9.66,12.85,10.43,21.61a32.14,32.14,0,0,1-7.46,24.3c-5.59,6.41-13.88,10.4-23.32,11.24-1.22.11-2.44.16-3.64.16a33.81,33.81,0,0,1-22.56-8.12,33.71,33.71,0,0,1-3-45.9C163.8,326,172.1,322,181.56,321.17c1.21-.1,2.43-.16,3.63-.16h0m-.89,55.23c.7,0,1.42,0,2.14-.1,12.27-1.09,20.35-11.31,19.2-24.3-1.08-12.14-9.74-20.63-21.06-20.63-.7,0-1.41,0-2.12.1-12.34,1.09-20.46,11.32-19.31,24.31,1.08,12.14,9.78,20.62,21.15,20.62m.89-57.94c-1.27,0-2.57.06-3.87.18C160.47,320.33,146.13,336.22,148,357c1.72,19.44,16.7,32.19,35.73,32.19,1.27,0,2.57-.06,3.87-.17,20.85-1.85,35.09-17.74,33.25-38.48-1.73-19.44-16.61-32.2-35.63-32.2Zm-.89,55.23c-10.33,0-17.53-7.74-18.45-18.15-1-11.14,5.5-20.37,16.85-21.37.63-.06,1.26-.09,1.88-.09,10.24,0,17.43,7.66,18.36,18.17,1,11-5.5,20.36-16.74,21.36-.65.05-1.28.08-1.9.08Z" transform="translate(-22.78 -302.56)"/><path class="cls-23" d="M230.92,356.48l-1.25-40.7,17.94-.56,1.24,40.09c.25,8.1,5.25,13.8,14.88,13.5,9.44-.29,14.18-6.29,13.93-14.39l-1.24-40.09,17.84-.54,1.25,40.6c.53,17-9.46,29.33-31.3,30C242.17,385.07,231.44,373.29,230.92,356.48Z" transform="translate(-22.78 -302.56)"/><path class="cls-24" d="M291.64,316.57l1.17,37.9c.24,7.93-2,14.55-6.5,19.16-4.92,5-12.38,7.75-22.18,8.06l-1.71,0c-9.31,0-16.55-2.38-21.51-7.09-4.53-4.3-7-10.6-7.28-18.22l-1.17-38L245,318l1.15,37.39c.31,10,6.78,16.13,16.88,16.13h.8c5.24-.17,9.57-1.94,12.5-5.15a16.58,16.58,0,0,0,4-12L279.21,317l12.43-.39m2.62-2.78-17.84.54,1.24,40.09c.25,8.1-4.49,14.1-13.93,14.39H263c-9.17,0-13.93-5.61-14.17-13.51l-1.24-40.09-17.94.56,1.25,40.7c.51,16.35,10.67,27.94,31.5,27.94l1.79,0c21.84-.67,31.83-13,31.3-30l-1.25-40.6Z" transform="translate(-22.78 -302.56)"/><path class="cls-25" d="M385.61,385.17l-7.88-43.4L364.93,384l-18.64-1.07-15.64-69.44,19.77,1.14,7.72,46.17,14.3-44.9,13.52.77L395,362.9l12.86-45,19.87,1.15-23.49,67.18Z" transform="translate(-22.78 -302.56)"/><path class="cls-26" d="M334.09,316.38l14,.81,7.36,44,1.85,11,3.4-10.68,13.66-42.9,9.32.54,8.65,44.18,2.17,11.05,3.1-10.83,12.26-42.9,14.12.81-21.63,61.87-14.47-.83-7.5-41.31-2-11L375.14,341,363,381.15l-14.47-.83-14.39-63.94m-3.44-2.91,15.64,69.44L364.93,384l12.8-42.21,7.88,43.4,18.64,1.07,23.49-67.18-19.87-1.15L395,362.9,386,316.65l-13.52-.77-14.3,44.9-7.72-46.17-19.77-1.14Z" transform="translate(-22.78 -302.56)"/><path class="cls-27" d="M428.35,388.79l7.55-68,17.54,1.95-7.56,68Z" transform="translate(-22.78 -302.56)"/><path class="cls-28" d="M438.3,323.78l12.15,1.35-7,62.62-12.15-1.35,7-62.62m-2.4-3-7.55,68,17.53,1.95,7.56-68-17.54-1.95Z" transform="translate(-22.78 -302.56)"/><path class="cls-29" d="M503.35,399.08,481,355.41l-6.25,39.11-17.42-2.79,10.79-67.56L486.08,327l21.41,41.54,5.94-37.17L531,334.2l-10.78,67.56Z" transform="translate(-22.78 -302.56)"/><path class="cls-30" d="M470.4,327.27l13.9,2.22,20.79,40.32,3.78,7.34,1.3-8.15,5.51-34.5,12.17,1.94-9.93,62.22-12.79-2-21.69-42.44-3.78-7.39-1.31,8.2-5.81,36.42-12.08-1.92,9.94-62.22m-2.25-3.1-10.79,67.56,17.42,2.79L481,355.41l22.32,43.67,16.82,2.68L531,334.2l-17.52-2.8-5.94,37.17L486.08,327l-17.93-2.86Z" transform="translate(-22.78 -302.56)"/></svg>